<?xml version="1.0" standalone="no"?>
<!DOCTYPE svg PUBLIC "-//W3C//DTD SVG 20010904//EN"
 "http://www.w3.org/TR/2001/REC-SVG-20010904/DTD/svg10.dtd">
<svg version="1.0" xmlns="http://www.w3.org/2000/svg"
 width="1248.000000pt" height="1248.000000pt" viewBox="0 0 1248.000000 1248.000000"
 preserveAspectRatio="xMidYMid meet">
<metadata>
Created by potrace 1.14, written by Peter Selinger 2001-2017
</metadata>
<g transform="translate(0.000000,1248.000000) scale(0.100000,-0.100000)"
fill="#000000" stroke="none">
<path d="M2379 9195 c-6 0 -2 -5228 4 -5232 6 -4 419 -6 650 -4 l47 1 0 2309
0 2308 1308 0 1307 0 0 309 0 309 -1657 0 c-912 0 -1659 0 -1659 0z"/>
<path d="M7404 8673 c-197 -30 -376 -131 -535 -301 -185 -198 -327 -503 -365
-787 -3 -22 -7 -46 -10 -53 -9 -28 -16 -242 -8 -242 5 0 47 12 94 26 47 14
117 34 155 45 191 52 337 97 345 105 4 5 10 29 13 54 25 211 133 406 253 456
48 20 128 26 162 11 46 -19 113 -75 167 -140 28 -32 55 -64 61 -71 15 -16 147
-213 168 -251 9 -16 28 -48 41 -70 88 -144 307 -568 451 -874 27 -57 145 -297
261 -533 l213 -429 -29 -52 c-15 -29 -44 -81 -63 -117 -20 -36 -101 -187 -182
-337 -157 -290 -211 -408 -257 -564 -70 -234 -73 -495 -7 -699 117 -364 413
-565 848 -575 323 -7 553 84 720 282 198 236 247 566 139 948 -49 176 -105
304 -341 774 l-227 454 216 426 c280 554 569 1125 804 1588 273 539 413 816
420 834 7 14 -24 16 -315 16 l-322 0 -14 -31 c-8 -17 -42 -89 -76 -161 -85
-180 -132 -280 -164 -350 -43 -92 -92 -198 -159 -339 -33 -70 -61 -129 -61
-131 0 -2 -27 -59 -59 -128 -81 -170 -133 -279 -201 -427 -32 -69 -82 -177
-112 -240 -30 -63 -74 -158 -99 -210 -24 -52 -62 -133 -85 -180 l-40 -84 -26
54 c-65 137 -184 403 -193 430 -1 3 -11 27 -23 53 -12 27 -36 81 -53 120 -18
40 -45 100 -60 135 -16 34 -29 64 -29 67 0 2 -20 48 -45 101 -25 53 -45 97
-45 99 0 6 -93 204 -163 345 -114 232 -271 510 -306 540 -4 3 -19 23 -36 45
-75 101 -195 210 -301 272 -151 89 -342 124 -520 96z m1801 -3730 c196 -400
303 -692 309 -843 6 -145 -34 -279 -101 -342 -93 -89 -286 -99 -408 -21 -97
63 -170 182 -190 313 -8 48 -9 201 -2 235 3 11 8 40 12 65 20 130 112 376 215
575 35 66 68 130 74 142 6 12 14 19 17 17 4 -2 37 -66 74 -141z"/>
</g>
</svg>
