<?xml version="1.0" standalone="no"?>
<!DOCTYPE svg PUBLIC "-//W3C//DTD SVG 20010904//EN"
 "http://www.w3.org/TR/2001/REC-SVG-20010904/DTD/svg10.dtd">
<svg version="1.0" xmlns="http://www.w3.org/2000/svg"
 width="512.000000pt" height="512.000000pt" viewBox="0 0 512.000000 512.000000"
 preserveAspectRatio="xMidYMid meet">
<metadata>
Created by potrace 1.14, written by Peter Selinger 2001-2017
</metadata>
<g transform="translate(0.000000,512.000000) scale(0.100000,-0.100000)"
fill="#000000" stroke="none">
<path d="M0 4600 c0 -329 4 -520 10 -520 5 0 19 13 31 30 29 38 136 117 202
148 62 29 162 55 291 77 79 14 112 15 184 6 222 -28 324 -72 448 -196 46 -47
84 -89 84 -95 0 -6 11 -27 23 -48 67 -105 119 -342 137 -612 15 -229 10 -761
-8 -782 -6 -8 -38 -21 -69 -28 -63 -15 -143 -51 -160 -72 -17 -22 -32 -98 -37
-193 -13 -216 -35 -488 -40 -493 -3 -2 -15 17 -26 44 l-21 48 20 49 c67 160
-44 330 -224 344 -86 7 -135 -9 -198 -67 -40 -37 -58 -62 -70 -101 -22 -66
-21 -87 3 -156 25 -70 73 -122 151 -161 l59 -29 142 -254 141 -254 -7 -180
c-15 -418 -10 -398 -144 -598 -28 -43 -52 -81 -52 -83 0 -3 -17 -25 -37 -49
-39 -48 -53 -53 -215 -89 -73 -17 -98 -29 -84 -43 5 -6 137 21 174 34 6 3 12
-2 12 -10 0 -21 -87 -76 -242 -153 -50 -25 -63 -55 -37 -88 18 -23 28 -26 80
-26 69 0 99 12 99 40 0 25 -20 25 -65 0 -53 -30 -67 -24 -15 7 58 34 56 31 43
53 -11 16 -7 21 30 40 39 21 86 55 146 105 52 45 179 210 249 325 l22 35 -2
-59 c-1 -57 -3 -61 -74 -152 -41 -52 -82 -107 -91 -122 -10 -15 -21 -29 -24
-32 -4 -3 -27 -46 -51 -95 -38 -80 -48 -92 -87 -112 -24 -12 -45 -24 -48 -26
-2 -3 41 -5 96 -5 l101 -1 6 27 c3 15 8 36 11 47 4 16 146 165 157 165 2 0 6
-32 8 -71 4 -52 11 -79 28 -101 19 -25 21 -35 11 -50 -10 -17 -7 -18 47 -18
32 0 63 5 69 11 7 7 28 9 60 4 26 -4 233 -9 458 -10 441 -3 424 5 -50 24 -321
13 -383 17 -405 31 -24 15 1 30 54 35 58 5 92 25 113 70 14 30 15 38 3 60 -16
31 -56 39 -156 33 -69 -5 -78 -8 -110 -39 -32 -31 -35 -38 -32 -84 2 -40 0
-50 -14 -53 -28 -6 -38 38 -38 174 l0 125 61 80 c51 66 66 80 83 75 12 -3 29
-6 39 -6 12 0 17 -8 17 -28 0 -56 67 -93 139 -77 31 7 37 17 43 75 3 22 8 25
50 28 57 4 69 19 70 94 1 42 -3 54 -21 69 -13 11 -36 19 -52 19 -26 0 -29 4
-29 30 0 48 -30 70 -95 70 -60 0 -61 1 -44 64 l11 39 51 -7 c29 -3 64 -6 78
-6 15 0 55 -19 90 -43 121 -80 194 -123 311 -182 105 -54 117 -62 112 -82 -8
-31 26 -43 124 -43 66 -1 185 -20 198 -33 2 -2 -24 -9 -59 -16 -76 -16 -111
-36 -151 -85 -29 -35 -31 -44 -31 -115 0 -66 4 -83 25 -114 39 -57 91 -80 190
-85 81 -4 87 -3 126 26 27 19 50 49 68 87 24 52 26 61 17 112 -19 98 -47 133
-141 171 l-25 11 25 0 c14 0 52 -6 85 -13 54 -11 60 -15 63 -39 4 -34 52 -74
99 -83 50 -9 102 19 126 68 19 38 19 38 81 38 35 0 83 3 108 6 35 5 46 3 51
-8 6 -18 -11 -434 -19 -460 -5 -16 2 -18 61 -18 59 0 75 5 153 46 48 25 101
54 117 64 17 10 33 19 38 19 4 1 7 -28 7 -64 0 -49 3 -65 14 -65 11 0 15 60
20 337 3 186 8 453 11 593 3 140 10 489 15 775 14 736 28 1011 70 1385 47 432
84 587 186 795 105 213 345 392 615 459 l66 16 109 -51 c60 -28 129 -59 154
-69 25 -10 99 -41 165 -70 166 -72 342 -140 360 -140 8 0 15 7 15 15 0 19 -38
57 -50 50 -5 -3 -26 2 -47 11 -21 9 -42 18 -48 18 -36 4 -171 61 -180 76 -3 5
-15 10 -25 10 -21 0 -133 51 -138 63 -2 4 -11 7 -21 7 -9 0 -26 7 -37 15 -10
8 -30 15 -44 15 -20 0 -22 2 -10 11 12 8 11 9 -6 4 -13 -3 -41 4 -72 20 -27
14 -55 25 -61 25 -6 0 -11 5 -11 10 0 6 -8 13 -17 17 -43 14 -113 47 -113 53
0 8 34 4 150 -16 110 -19 126 -24 110 -34 -7 -5 1 -10 24 -14 19 -4 44 -17 54
-31 11 -13 21 -22 24 -20 2 2 25 -6 51 -20 26 -13 43 -26 37 -30 -6 -3 -8 -11
-4 -16 3 -6 12 -3 20 8 9 12 16 14 21 7 5 -6 19 -14 33 -17 36 -8 120 -36 158
-53 18 -7 51 -17 75 -21 23 -3 61 -16 85 -29 l42 -22 0 438 0 438 -40 16 c-93
37 -194 8 -272 -77 -25 -27 -38 -36 -38 -26 0 34 42 111 89 162 l25 27 -2442
0 -2442 0 0 -520z m3100 -1939 c58 -6 142 -16 188 -22 l82 -11 0 -43 c0 -23
-6 -47 -12 -53 -7 -5 -40 -15 -73 -20 -33 -6 -76 -15 -95 -21 -67 -20 -195
-53 -205 -53 -5 1 -41 12 -79 27 -74 28 -259 51 -612 76 -177 12 -897 8 -941
-6 -26 -8 -32 9 -7 19 9 3 93 22 187 41 146 30 239 44 527 79 67 8 935 -3
1040 -13z m-718 -161 c424 -41 485 -50 533 -80 24 -15 34 -30 39 -58 3 -20 9
-393 12 -828 6 -675 5 -792 -7 -800 -23 -14 -331 -17 -472 -4 -157 14 -235 33
-382 92 l-110 43 52 5 c29 3 57 10 63 16 6 6 10 40 8 80 l-3 69 -140 7 c-260
12 -325 19 -343 37 -9 9 -38 32 -64 51 -26 19 -48 38 -48 43 0 10 91 9 395 -8
320 -17 736 -20 784 -6 90 27 104 65 121 313 15 227 15 694 0 734 -17 45 -57
81 -103 92 -125 31 -884 76 -1179 70 l-167 -3 -35 -34 c-54 -53 -68 -136 -86
-540 -6 -123 -13 -228 -17 -234 -5 -9 -77 133 -93 184 -16 55 35 699 59 738 4
5 69 14 146 19 195 13 913 14 1037 2z m-512 -165 c52 -3 127 -7 165 -10 39 -3
142 -10 230 -15 200 -12 367 -28 422 -39 107 -21 116 -48 115 -366 0 -250 -25
-643 -42 -674 -5 -10 -26 -27 -47 -37 -34 -16 -64 -18 -283 -16 -135 2 -326 7
-425 13 -99 6 -266 14 -371 18 l-190 6 -57 49 c-43 36 -66 67 -91 120 l-35 71
14 265 c8 146 19 318 25 383 20 206 37 229 183 237 102 6 242 4 387 -5z
m-1039 -67 c24 15 89 -1 89 -22 0 -7 7 -21 15 -32 14 -18 16 -18 28 -2 13 16
16 15 40 -10 15 -16 27 -35 27 -43 0 -7 7 -23 15 -33 22 -29 18 -102 -7 -153
-44 -89 -148 -153 -225 -138 -31 5 -34 8 -20 16 23 13 22 29 -3 29 -11 0 -20
-7 -20 -15 0 -48 -103 22 -147 99 -19 33 -26 118 -14 164 15 56 55 100 114
128 40 18 53 20 68 11 15 -9 24 -9 40 1z m514 -1008 c12 -19 -12 -10 -31 11
-19 22 -19 22 3 10 12 -6 25 -16 28 -21z m75 -67 c96 -84 329 -253 349 -253 5
0 14 -6 20 -14 21 -25 259 -135 379 -176 166 -55 266 -71 490 -77 147 -4 219
-2 305 11 241 34 328 46 343 46 12 0 14 -12 12 -62 -3 -61 -3 -61 -41 -74 -21
-7 -66 -18 -100 -23 -34 -5 -118 -19 -187 -30 -160 -26 -411 -28 -531 -5 -46
9 -93 18 -104 20 -29 5 -130 30 -198 49 -122 34 -405 169 -512 246 -22 15 -65
45 -95 65 -110 75 -336 284 -307 284 2 0 18 -11 37 -25 41 -30 50 -31 50 -5 0
14 7 20 21 20 18 0 20 4 14 27 -7 29 -6 29 55 -24z m1757 5 c-3 -7 -5 -2 -5
12 0 14 2 19 5 13 2 -7 2 -19 0 -25z m-1982 -88 c28 0 44 -25 26 -43 -17 -17
-14 -117 5 -138 14 -16 14 -23 -5 -84 -26 -83 -90 -218 -126 -265 l-27 -35 6
50 c4 28 11 156 16 285 6 129 13 255 17 278 l6 44 28 -46 c22 -35 35 -46 54
-46z m1962 -117 c-3 -10 -5 -4 -5 12 0 17 2 24 5 18 2 -7 2 -21 0 -30z m-1749
-258 c5 -52 17 -65 63 -65 33 0 40 -4 45 -25 9 -36 -11 -54 -64 -57 l-47 -3
-5 -50 -5 -50 -40 0 c-37 0 -40 2 -43 30 -6 68 -10 75 -47 75 -18 0 -36 4 -39
9 -11 18 29 71 59 79 22 6 31 15 33 33 7 66 11 70 50 67 35 -3 37 -5 40 -43z
m1245 -259 c8 -21 -39 -68 -65 -64 -25 4 -63 51 -54 67 11 17 113 14 119 -3z
m654 -88 c-3 -7 -5 -2 -5 12 0 14 2 19 5 13 2 -7 2 -19 0 -25z m0 -60 c-3 -7
-5 -2 -5 12 0 14 2 19 5 13 2 -7 2 -19 0 -25z m-2287 -22 c0 -16 -40 -69 -48
-62 -4 5 38 76 46 76 1 0 2 -6 2 -14z m2287 -118 c-3 -8 -6 -5 -6 6 -1 11 2
17 5 13 3 -3 4 -12 1 -19z m-287 -128 c0 -5 -5 -10 -11 -10 -5 0 -7 5 -4 10 3
6 8 10 11 10 2 0 4 -4 4 -10z"/>
<path d="M2421 1019 c-48 -45 -49 -97 -2 -136 35 -30 76 -29 106 2 74 73 -28
204 -104 134z"/>
<path d="M1536 2137 c-12 -9 -17 -23 -14 -47 2 -30 7 -35 30 -38 21 -3 30 3
42 27 20 37 20 36 0 55 -19 19 -35 20 -58 3z"/>
<path d="M2247 2102 c-32 -35 -15 -82 28 -82 28 0 45 19 45 50 0 48 -42 66
-73 32z"/>
<path d="M1763 1830 c-65 -26 17 -120 104 -120 63 0 133 42 133 80 0 37 -32
50 -126 49 -49 0 -99 -4 -111 -9z m182 -60 c0 -24 -77 -47 -109 -32 -35 16
-33 27 7 40 46 15 102 11 102 -8z"/>
<path d="M850 2231 c0 -22 25 -39 38 -27 8 8 -10 38 -26 44 -7 2 -12 -6 -12
-17z"/>
<path d="M777 2203 c-11 -10 14 -33 35 -33 14 0 18 5 14 16 -3 9 -6 18 -6 20
0 7 -36 5 -43 -3z"/>
<path d="M872 2138 c2 -12 10 -23 18 -23 22 0 19 39 -3 43 -15 3 -18 -1 -15
-20z"/>
<path d="M934 2145 c-8 -21 3 -45 20 -45 20 0 29 16 21 40 -7 23 -33 27 -41 5z"/>
<path d="M995 2140 c-8 -13 6 -41 19 -37 17 6 19 34 2 40 -9 4 -18 2 -21 -3z"/>
<path d="M672 1928 c5 -15 35 -34 43 -27 3 4 3 14 -1 23 -7 18 -48 23 -42 4z"/>
<path d="M750 1925 c0 -8 5 -15 10 -15 6 0 10 7 10 15 0 8 -4 15 -10 15 -5 0
-10 -7 -10 -15z"/>
<path d="M4728 4243 c7 -3 16 -2 19 1 4 3 -2 6 -13 5 -11 0 -14 -3 -6 -6z"/>
<path d="M4770 4230 c8 -5 20 -10 25 -10 6 0 3 5 -5 10 -8 5 -19 10 -25 10 -5
0 -3 -5 5 -10z"/>
<path d="M4835 4190 c3 -5 10 -10 16 -10 5 0 9 5 9 10 0 6 -7 10 -16 10 -8 0
-12 -4 -9 -10z"/>
<path d="M4960 4170 c-13 -8 -12 -10 3 -10 9 0 17 5 17 10 0 12 -1 12 -20 0z"/>
<path d="M5050 4130 c-8 -5 -12 -11 -9 -15 9 -8 69 7 63 16 -7 12 -35 11 -54
-1z"/>
<path d="M3646 3794 c-18 -18 -21 -66 -6 -95 7 -12 21 -19 40 -19 53 0 65 65
20 110 -24 24 -34 25 -54 4z"/>
<path d="M4215 3786 c-27 -19 -24 -74 4 -98 29 -23 36 -23 62 3 16 16 20 28
15 52 -11 55 -42 72 -81 43z"/>
<path d="M248 3759 c-26 -15 -24 -74 3 -93 36 -25 79 4 79 54 0 45 -40 64 -82
39z"/>
<path d="M983 3758 c-24 -29 -16 -91 13 -102 28 -11 74 22 74 55 0 39 -65 74
-87 47z"/>
<path d="M3805 3530 c-3 -5 6 -12 20 -16 39 -10 173 0 187 14 9 9 -10 12 -94
12 -59 0 -110 -4 -113 -10z"/>
<path d="M563 3481 c-129 -7 -157 -17 -137 -49 15 -23 46 -30 142 -31 104 -1
192 21 192 49 0 21 -29 41 -57 38 -10 -1 -73 -4 -140 -7z"/>
<path d="M45 850 c-3 -5 -15 -10 -26 -10 -15 0 -19 -7 -19 -37 0 -31 6 -43 34
-65 19 -16 37 -28 40 -28 3 0 3 30 1 68 -3 37 -5 70 -5 75 0 10 -18 9 -25 -3z"/>
<path d="M0 690 c0 -33 11 -38 30 -15 15 18 6 45 -15 45 -10 0 -15 -10 -15
-30z"/>
<path d="M33 602 c-26 -12 -33 -22 -33 -44 0 -23 4 -28 25 -28 19 0 29 9 44
39 28 53 20 60 -36 33z"/>
<path d="M0 425 c0 -53 4 -75 13 -75 8 0 12 22 12 75 0 53 -4 75 -12 75 -9 0
-13 -22 -13 -75z"/>
<path d="M27 313 c18 -2 48 -2 66 0 17 2 3 4 -33 4 -36 0 -50 -2 -33 -4z"/>
<path d="M94 232 l-94 -3 0 -29 0 -30 66 0 c51 0 78 6 118 26 69 34 79 45 37
42 -18 -2 -76 -4 -127 -6z"/>
<path d="M1556 225 c-15 -7 -22 -22 -24 -48 -3 -35 -1 -39 34 -53 55 -23 204
-16 233 10 27 25 27 47 -1 74 -20 17 -38 21 -122 24 -55 2 -109 -2 -120 -7z"/>
<path d="M13 113 c-16 -6 -18 -113 -3 -113 15 0 54 86 47 104 -6 16 -21 19
-44 9z"/>
</g>
</svg>
